name C:\Users\antoi\Documents\MyRepositories\upper-imu-dc\Results\main_tracking\Case_76\FLX01_linearAccelerations_bodyFrame.mot
datacolumns 4
datarows 47
range 5.01000000 5.47000000
endheader 
time	radius_imu_x	radius_imu_y	radius_imu_z	
          5.01000000	         -2.84429202	          3.86200625	          9.73927078	
          5.02000000	         -2.73452223	          3.96069558	          9.70905804	
          5.03000000	         -2.62783383	          4.05752779	          9.67317743	
          5.04000000	         -2.52468753	          4.15310660	          9.63085941	
          5.05000000	         -2.42534240	          4.24814152	          9.58148119	
          5.06000000	         -2.33002908	          4.34334948	          9.52463162	
          5.07000000	         -2.23919532	          4.43934561	          9.46012956	
          5.08000000	         -2.15368862	          4.53654882	          9.38800586	
          5.09000000	         -2.07474924	          4.63514454	          9.30847862	
          5.10000000	         -2.00378161	          4.73512506	          9.22194736	
          5.11000000	         -1.94199127	          4.83634549	          9.12904699	
          5.12000000	         -1.89000313	          4.93861431	          9.03077821	
          5.13000000	         -1.84763014	          5.04183635	          8.92858187	
          5.14000000	         -1.81421959	          5.14590345	          8.82436787	
          5.15000000	         -1.78950189	          5.25067978	          8.72055206	
          5.16000000	         -1.77134713	          5.35626812	          8.61874465	
          5.17000000	         -1.75975693	          5.46153128	          8.51998047	
          5.18000000	         -1.75383916	          5.56726185	          8.42632820	
          5.19000000	         -1.75394588	          5.67222119	          8.34007917	
          5.20000000	         -1.75949652	          5.77644293	          8.26194881	
          5.21000000	         -1.77011408	          5.87942189	          8.19062275	
          5.22000000	         -1.78424578	          5.98107373	          8.12630897	
          5.23000000	         -1.80133510	          6.08164261	          8.06984545	
          5.24000000	         -1.82363669	          6.18142092	          8.02006654	
          5.25000000	         -1.84811996	          6.28046727	          7.97661697	
          5.26000000	         -1.87701863	          6.37890070	          7.93527036	
          5.27000000	         -1.90731101	          6.47665038	          7.89476392	
          5.28000000	         -1.94468184	          6.57410614	          7.85345393	
          5.29000000	         -1.98550897	          6.67107970	          7.81176430	
          5.30000000	         -2.03052928	          6.76718320	          7.76250633	
          5.31000000	         -2.07811425	          6.86249252	          7.70788400	
          5.32000000	         -2.12881133	          6.95700941	          7.64744826	
          5.33000000	         -2.18033711	          7.05052668	          7.58097396	
          5.34000000	         -2.23192916	          7.14292981	          7.50851511	
          5.35000000	         -2.28187089	          7.23402432	          7.43066159	
          5.36000000	         -2.32964890	          7.32367425	          7.34789513	
          5.37000000	         -2.37368693	          7.41164940	          7.26017116	
          5.38000000	         -2.41433844	          7.49797343	          7.16855577	
          5.39000000	         -2.45066697	          7.58259910	          7.07324269	
          5.40000000	         -2.48177144	          7.66554788	          6.97361084	
          5.41000000	         -2.50655785	          7.74695232	          6.86946811	
          5.42000000	         -2.52398307	          7.82704380	          6.76071523	
          5.43000000	         -2.53291778	          7.90611974	          6.64731749	
          5.44000000	         -2.53225452	          7.98452223	          6.52936093	
          5.45000000	         -2.52112370	          8.06260333	          6.40697594	
          5.46000000	         -2.49902190	          8.14068035	          6.28033071	
          5.47000000	         -2.46584862	          8.21900003	          6.14965184	
